<?xml version="1.0" encoding="UTF-8"?>
<svg xmlns="http://www.w3.org/2000/svg" xmlns:xlink="http://www.w3.org/1999/xlink" width="40px" height="40px" viewBox="0 0 40 40" version="1.1">
<g id="surface1">
<path style=" stroke:none;fill-rule:nonzero;fill:rgb(100%,100%,100%);fill-opacity:1;" d="M 22.351562 4.019531 C 22.34375 4.027344 22.085938 4.066406 21.777344 4.105469 C 21.472656 4.148438 21.070312 4.207031 20.890625 4.246094 C 20.707031 4.285156 20.476562 4.324219 20.378906 4.335938 C 20.28125 4.351562 20.125 4.390625 20.03125 4.425781 C 19.941406 4.460938 19.804688 4.488281 19.734375 4.488281 C 19.664062 4.488281 19.59375 4.507812 19.578125 4.527344 C 19.5625 4.550781 19.488281 4.582031 19.410156 4.601562 C 19.234375 4.636719 18.847656 4.753906 18.75 4.804688 C 18.710938 4.820312 18.601562 4.859375 18.507812 4.882812 C 18.1875 4.972656 18.179688 5 18.398438 5.1875 C 19.25 5.902344 19.667969 6.484375 19.71875 7.027344 C 19.738281 7.21875 19.722656 7.3125 19.652344 7.449219 C 19.542969 7.667969 19.453125 7.742188 19.179688 7.863281 C 19.058594 7.914062 18.921875 7.976562 18.878906 8 C 18.835938 8.027344 18.769531 8.042969 18.730469 8.042969 C 18.6875 8.042969 18.59375 8.070312 18.519531 8.105469 C 18.441406 8.136719 18.199219 8.199219 17.976562 8.238281 C 17.511719 8.324219 16.746094 8.34375 14.289062 8.316406 C 12.507812 8.296875 12.554688 8.292969 11.535156 8.515625 C 10.542969 8.730469 9.601562 9.15625 8.644531 9.820312 C 8.425781 9.972656 8.234375 10.109375 8.222656 10.128906 C 8.207031 10.140625 8.101562 10.234375 7.976562 10.332031 C 7.613281 10.621094 7.554688 10.675781 7.25 10.964844 C 7.089844 11.121094 6.941406 11.246094 6.925781 11.246094 C 6.902344 11.246094 6.890625 11.277344 6.890625 11.316406 C 6.890625 11.382812 6.933594 11.386719 7.234375 11.363281 C 8.722656 11.246094 9.078125 11.230469 9.71875 11.285156 C 10.894531 11.378906 11.261719 11.417969 11.421875 11.464844 C 11.507812 11.488281 11.652344 11.511719 11.746094 11.511719 C 11.839844 11.511719 11.988281 11.542969 12.074219 11.578125 C 12.160156 11.613281 12.296875 11.644531 12.375 11.644531 C 12.449219 11.648438 12.558594 11.675781 12.621094 11.710938 C 12.683594 11.746094 12.777344 11.773438 12.828125 11.777344 C 12.878906 11.777344 12.980469 11.808594 13.050781 11.84375 C 13.121094 11.878906 13.214844 11.910156 13.257812 11.910156 C 13.296875 11.910156 13.367188 11.929688 13.414062 11.957031 C 13.453125 11.976562 13.589844 12.039062 13.710938 12.089844 C 14.105469 12.253906 14.535156 12.464844 14.535156 12.496094 C 14.535156 12.519531 14.554688 12.535156 14.585938 12.535156 C 14.746094 12.535156 15.683594 13.238281 16.0625 13.652344 C 16.332031 13.941406 16.753906 14.5625 16.753906 14.671875 C 16.753906 14.777344 16.613281 14.746094 16.234375 14.554688 C 16.011719 14.445312 15.816406 14.355469 15.804688 14.355469 C 15.792969 14.355469 15.675781 14.308594 15.546875 14.25 C 15.417969 14.191406 15.140625 14.089844 14.933594 14.023438 C 14.722656 13.957031 14.476562 13.875 14.378906 13.839844 C 14.277344 13.804688 14.160156 13.777344 14.117188 13.777344 C 14.070312 13.777344 13.941406 13.746094 13.828125 13.710938 C 13.328125 13.554688 12.75 13.492188 11.777344 13.496094 C 11.019531 13.496094 10.78125 13.515625 10.621094 13.574219 C 10.511719 13.609375 10.386719 13.644531 10.347656 13.644531 C 10.277344 13.644531 10.125 13.703125 9.777344 13.859375 C 9.136719 14.152344 8.445312 14.8125 7.847656 15.699219 C 7.664062 15.972656 7.667969 16.058594 7.859375 16 C 8.191406 15.894531 8.535156 15.875 8.921875 15.933594 C 9.445312 16.019531 9.605469 16.066406 10.011719 16.28125 C 10.269531 16.414062 10.355469 16.480469 10.355469 16.550781 C 10.355469 16.648438 9.753906 17.253906 9.109375 17.800781 C 8.75 18.105469 8.085938 18.574219 7.800781 18.722656 C 7.316406 18.976562 6.941406 19.136719 6.515625 19.277344 C 6.246094 19.363281 5.957031 19.460938 5.875 19.492188 C 5.796875 19.527344 5.683594 19.554688 5.621094 19.554688 C 5.5625 19.554688 5.460938 19.578125 5.390625 19.605469 C 5.324219 19.632812 5.148438 19.671875 5 19.6875 C 4.851562 19.707031 4.605469 19.746094 4.445312 19.769531 C 3.742188 19.878906 2.511719 19.925781 1.667969 19.867188 C 1.214844 19.835938 0.832031 19.820312 0.816406 19.835938 C 0.804688 19.847656 0.867188 19.929688 0.960938 20.007812 C 1.050781 20.089844 1.148438 20.179688 1.171875 20.199219 C 1.480469 20.503906 2.65625 21.324219 3.289062 21.6875 C 3.648438 21.894531 4.769531 22.445312 4.828125 22.445312 C 4.859375 22.445312 4.9375 22.476562 5.003906 22.511719 C 5.074219 22.546875 5.167969 22.578125 5.214844 22.578125 C 5.253906 22.578125 5.324219 22.59375 5.367188 22.617188 C 5.605469 22.75 6.429688 22.890625 6.957031 22.890625 C 7.28125 22.890625 7.863281 22.820312 8.132812 22.753906 C 8.503906 22.664062 8.960938 22.523438 9.023438 22.492188 C 9.0625 22.472656 9.15625 22.441406 9.234375 22.425781 C 9.3125 22.410156 9.386719 22.375 9.398438 22.351562 C 9.417969 22.328125 9.460938 22.3125 9.503906 22.3125 C 9.542969 22.3125 9.636719 22.28125 9.707031 22.246094 C 9.773438 22.207031 9.851562 22.179688 9.875 22.179688 C 9.902344 22.179688 9.980469 22.152344 10.058594 22.117188 C 10.707031 21.839844 11.042969 21.753906 11.535156 21.761719 C 11.914062 21.765625 12.003906 21.777344 12.15625 21.867188 C 12.761719 22.21875 12.828125 22.605469 12.375 23.105469 C 12.152344 23.351562 11.621094 23.722656 11.398438 23.785156 C 11.351562 23.804688 11.160156 23.878906 10.976562 23.957031 C 10.796875 24.035156 10.535156 24.132812 10.398438 24.179688 C 10.023438 24.308594 9.78125 24.394531 9.699219 24.441406 C 9.65625 24.460938 9.492188 24.546875 9.332031 24.621094 C 8.640625 24.96875 7.863281 25.5625 7.152344 26.296875 C 6.898438 26.554688 6.714844 26.777344 6.746094 26.792969 C 6.773438 26.800781 6.972656 26.785156 7.1875 26.761719 C 7.6875 26.699219 9.632812 26.699219 9.976562 26.761719 C 10.125 26.78125 10.394531 26.820312 10.578125 26.84375 C 11.003906 26.894531 11.710938 27.058594 11.910156 27.15625 C 11.949219 27.171875 12.050781 27.203125 12.132812 27.222656 C 12.21875 27.238281 12.3125 27.269531 12.332031 27.285156 C 12.359375 27.300781 12.480469 27.355469 12.601562 27.398438 C 13.480469 27.714844 14.550781 28.316406 15.125 28.8125 C 15.410156 29.058594 15.421875 29.148438 15.207031 29.3125 C 14.976562 29.484375 14.578125 29.6875 14.457031 29.6875 C 14.410156 29.6875 14.347656 29.714844 14.320312 29.742188 C 14.285156 29.777344 14.128906 29.800781 13.929688 29.804688 C 13.746094 29.808594 13.585938 29.820312 13.574219 29.835938 C 13.527344 29.878906 13.878906 30.351562 14.265625 30.761719 C 14.4375 30.941406 14.929688 31.34375 15.199219 31.519531 C 15.542969 31.742188 16.34375 32.121094 16.554688 32.160156 C 16.652344 32.171875 16.769531 32.207031 16.8125 32.230469 C 16.910156 32.28125 17.742188 32.367188 18.109375 32.367188 C 18.457031 32.367188 19.40625 32.285156 19.460938 32.25 C 19.484375 32.230469 19.621094 32.199219 19.765625 32.171875 C 20.039062 32.125 20.71875 31.910156 20.976562 31.792969 C 21.375 31.609375 21.632812 31.480469 21.742188 31.40625 C 21.871094 31.320312 22 31.332031 22 31.429688 C 22 31.460938 21.921875 31.617188 21.828125 31.769531 C 21.246094 32.714844 19.742188 33.898438 18.671875 34.25 C 18.472656 34.316406 18.324219 34.386719 18.34375 34.40625 C 18.414062 34.472656 19.609375 34.84375 19.75 34.84375 C 19.804688 34.84375 19.867188 34.863281 19.890625 34.882812 C 19.914062 34.90625 20.054688 34.945312 20.199219 34.972656 C 20.921875 35.117188 21.207031 35.164062 21.535156 35.199219 C 21.730469 35.226562 22 35.265625 22.132812 35.292969 C 22.464844 35.363281 25.1875 35.363281 25.488281 35.296875 C 25.613281 35.265625 25.878906 35.226562 26.089844 35.199219 C 26.492188 35.15625 26.964844 35.070312 27.398438 34.964844 C 27.546875 34.925781 27.753906 34.875 27.867188 34.847656 C 27.976562 34.820312 28.117188 34.777344 28.179688 34.761719 C 28.238281 34.738281 28.441406 34.675781 28.621094 34.621094 C 28.804688 34.5625 28.972656 34.507812 29 34.484375 C 29.023438 34.460938 29.078125 34.445312 29.125 34.445312 C 29.167969 34.445312 29.261719 34.417969 29.324219 34.382812 C 29.390625 34.347656 29.535156 34.285156 29.644531 34.246094 C 30.292969 33.996094 31.535156 33.367188 32.109375 33.003906 C 32.496094 32.753906 32.863281 32.515625 32.890625 32.488281 C 32.902344 32.476562 32.980469 32.414062 33.066406 32.355469 C 33.152344 32.296875 33.246094 32.226562 33.277344 32.199219 C 33.300781 32.179688 33.539062 31.972656 33.800781 31.753906 C 35.132812 30.636719 36.292969 29.300781 37.117188 27.933594 C 37.21875 27.761719 37.316406 27.613281 37.328125 27.601562 C 37.367188 27.570312 37.488281 27.34375 37.832031 26.65625 C 38.109375 26.089844 38.226562 25.828125 38.449219 25.199219 C 38.496094 25.066406 38.554688 24.914062 38.578125 24.867188 C 38.59375 24.816406 38.648438 24.667969 38.6875 24.535156 C 38.730469 24.398438 38.78125 24.226562 38.808594 24.15625 C 38.832031 24.078125 38.871094 23.949219 38.890625 23.867188 C 38.972656 23.519531 39.03125 23.300781 39.09375 23.109375 C 39.128906 23 39.15625 22.863281 39.15625 22.800781 C 39.15625 22.738281 39.1875 22.589844 39.222656 22.472656 C 39.257812 22.351562 39.289062 22.167969 39.289062 22.070312 C 39.289062 21.96875 39.3125 21.816406 39.335938 21.734375 C 39.390625 21.5625 39.476562 20.289062 39.476562 19.6875 C 39.476562 19.054688 39.386719 17.71875 39.335938 17.554688 C 39.3125 17.472656 39.289062 17.320312 39.289062 17.226562 C 39.289062 17.128906 39.261719 16.9375 39.226562 16.804688 C 39.191406 16.667969 39.132812 16.394531 39.089844 16.199219 C 39.050781 16.003906 38.996094 15.78125 38.96875 15.710938 C 38.945312 15.636719 38.910156 15.496094 38.890625 15.398438 C 38.871094 15.300781 38.835938 15.171875 38.8125 15.109375 C 38.785156 15.050781 38.738281 14.910156 38.707031 14.800781 C 38.582031 14.351562 38.132812 13.246094 37.847656 12.667969 C 37.4375 11.835938 36.8125 10.863281 36.15625 10.011719 C 35.808594 9.570312 35.007812 8.667969 34.820312 8.511719 C 34.707031 8.414062 34.546875 8.269531 34.472656 8.199219 C 33.859375 7.621094 33.179688 7.074219 32.578125 6.6875 C 32.394531 6.574219 32.191406 6.441406 32.125 6.390625 C 32.058594 6.347656 31.996094 6.3125 31.980469 6.3125 C 31.972656 6.3125 31.769531 6.195312 31.523438 6.054688 C 31.011719 5.746094 29.714844 5.109375 29.609375 5.109375 C 29.570312 5.109375 29.347656 5.011719 29.191406 4.929688 C 29.148438 4.90625 29.078125 4.890625 29.039062 4.890625 C 29 4.890625 28.90625 4.863281 28.832031 4.832031 C 28.644531 4.75 28.285156 4.640625 28.101562 4.601562 C 28.023438 4.582031 27.945312 4.550781 27.933594 4.527344 C 27.914062 4.507812 27.847656 4.488281 27.777344 4.488281 C 27.707031 4.488281 27.59375 4.464844 27.527344 4.445312 C 27.460938 4.417969 27.320312 4.386719 27.214844 4.375 C 27.109375 4.359375 26.949219 4.320312 26.867188 4.289062 C 26.78125 4.253906 26.636719 4.222656 26.535156 4.222656 C 26.4375 4.222656 26.269531 4.203125 26.167969 4.179688 C 25.621094 4.058594 24.769531 4 23.59375 4 C 22.921875 4 22.359375 4.007812 22.351562 4.019531 Z M 22.351562 4.019531 "/>
</g>
</svg>
